PathFileType	4	(X/Y/Z)	C:\Users\Basilio\Documents\Thesis Gigler\squatting_fais\c3dfiles\019\SJ_pre4\markers_experimental.trc
DataRate	CameraRate	NumFrames	NumMarkers	Units	OrigDataRate	OrigDataStartFrame	OrigNumFrames
200.000000	200.000000	4	59	mm	200.000000	163	1308
Frame#	Time	LBHD			RBHD			C7			T10			CLAV			LSHO			LUUPA			LMUPA			LDUPA			LLEP			LMEP			LRAD			LUL			LRFIN			RSHO			RUPA1			RMUPA			RDUPA			RLEP			RMEP			RRAD			RUL			RUFIN			LASI			USACR			LSACR			RSACR			LTHI1			LTHI2			LTHI3			LTHI4			LLFC			LTIB1			LTIB2			LTIB3			LTIB4			LLMAL			LMMAL			LHEE			LMT1			LMT2			LMT5			RTHI			RTHI2			RTHI3			RTHI4			RLFC			RTIB1			RTIB2			RTIB3			RTIB4			RLMAL			RMMAL			RHEE			RMT1			RMT2			RMT5			FHD			RASI			
		X1	Y1	Z1	X2	Y2	Z2	X3	Y3	Z3	X4	Y4	Z4	X5	Y5	Z5	X6	Y6	Z6	X7	Y7	Z7	X8	Y8	Z8	X9	Y9	Z9	X10	Y10	Z10	X11	Y11	Z11	X12	Y12	Z12	X13	Y13	Z13	X14	Y14	Z14	X15	Y15	Z15	X16	Y16	Z16	X17	Y17	Z17	X18	Y18	Z18	X19	Y19	Z19	X20	Y20	Z20	X21	Y21	Z21	X22	Y22	Z22	X23	Y23	Z23	X24	Y24	Z24	X25	Y25	Z25	X26	Y26	Z26	X27	Y27	Z27	X28	Y28	Z28	X29	Y29	Z29	X30	Y30	Z30	X31	Y31	Z31	X32	Y32	Z32	X33	Y33	Z33	X34	Y34	Z34	X35	Y35	Z35	X36	Y36	Z36	X37	Y37	Z37	X38	Y38	Z38	X39	Y39	Z39	X40	Y40	Z40	X41	Y41	Z41	X42	Y42	Z42	X43	Y43	Z43	X44	Y44	Z44	X45	Y45	Z45	X46	Y46	Z46	X47	Y47	Z47	X48	Y48	Z48	X49	Y49	Z49	X50	Y50	Z50	X51	Y51	Z51	X52	Y52	Z52	X53	Y53	Z53	X54	Y54	Z54	X55	Y55	Z55	X56	Y56	Z56	X57	Y57	Z57	X58	Y58	Z58	X59	Y59	Z59	

164	0.8150000000000001	-311.1032104492188	1639.575561523438	-1008.990417480469	-303.8462829589844	1631.678100585938	-869.7534790039065	-329.3999938964844	1468.02685546875	-938.1433105468752	-392.8622436523439	1182.633056640625	-936.879089355469	-199.3384399414063	1410.06201171875	-944.589538574219	-264.1388854980469	1450.340454101563	-1098.379028320313	-292.4982299804688	1309.8583984375	-1201.136962890625	-286.6764831542969	1265.696899414063	-1178.933959960938	-310.7440185546876	1253.030883789063	-1232.164428710938	-355.0807495117188	1204.863159179688	-1286.08251953125	-415.7562866210939	1194.081176757813	-1256.246215820313	-324.3109741210938	988.2056274414065	-1152.396362304688	-307.0080261230469	964.3784790039065	-1213.206787109375	-279.1831970214844	964.679626464844	-1121.184326171875	-246.9551391601563	1450.367553710938	-796.5389404296877	-314.5414123535157	1334.048461914063	-652.5243530273439	-282.6510620117188	1294.620971679688	-653.3936767578126	-319.9049377441407	1278.268188476563	-609.6523437500001	-322.0258178710938	1202.749389648438	-577.0502319335939	-385.611053466797	1202.807739257813	-591.8378906250001	-311.9137878417969	996.0698852539065	-730.4698486328126	-280.2334594726563	968.9800415039065	-681.5912475585939	-273.0056457519532	955.570739746094	-773.078796386719	-263.4986572265626	965.580017089844	-1052.863525390625	-411.0879211425782	1047.825439453125	-944.1326293945315	-420.5399169921876	1015.718200683594	-971.4024658203127	-418.1161499023439	1017.024047851563	-914.8811035156252	-328.6129760742188	715.3202514648439	-1151.38330078125	-283.1394042968751	644.2176513671876	-1162.747436523438	-237.4907836914063	653.4225463867189	-1151.66259765625	-301.8537597656251	585.6955566406251	-1154.472534179688	-294.2449645996094	490.0503234863282	-1151.140869140625	-251.398666381836	346.2224731445313	-1142.319946289063	-318.5896911621094	314.0911560058594	-1188.850341796875	-280.3722839355469	304.5666503906251	-1172.385375976563	-284.2785644531251	222.1200408935547	-1147.230590820313	-370.7947998046876	101.3722000122071	-1172.906860351563	-337.2858276367188	98.48165130615237	-1095.560180664063	-415.2954711914064	44.3224220275879	-1116.032836914063	-206.4989013671876	57.08071517944337	-1143.219482421875	-211.3075408935547	57.39564895629884	-1182.536865234375	-259.8947753906251	34.42671966552735	-1228.678588867188	-309.1734924316407	783.7164306640627	-741.9552612304689	-267.8067932128907	734.9462280273439	-737.0612792968751	-239.9289703369141	736.8850097656251	-755.1776733398439	-284.4165649414063	652.3415527343751	-724.2000122070314	-302.3937072753907	488.7410278320314	-733.5383300781251	-259.4008789062501	302.9961853027344	-752.9922485351564	-325.8675842285157	233.3283386230469	-697.0571899414064	-287.1142272949219	226.6000213623047	-721.7174072265626	-289.7225646972657	179.0429077148438	-756.6510620117189	-360.6834411621094	100.5676879882813	-711.8087768554689	-328.5178527832032	96.62244415283206	-782.635681152344	-404.9270935058595	44.49056625366212	-766.6652832031251	-197.4261779785157	53.74875259399415	-732.3137207031251	-205.8675537109376	59.5652542114258	-686.0665893554689	-256.4314575195313	40.33122634887696	-643.6474609375001	-172.8791961669922	1684.815307617188	-875.3449707031252	nan	nan	nan	
165	0.8200000000000001	-310.5106506347657	1639.322021484375	-1009.079223632813	-302.8168945312501	1631.33642578125	-869.8232421875002	-328.7071838378907	1467.525756835938	-938.044372558594	-393.161102294922	1182.485107421875	-936.9371337890627	-198.4428863525391	1408.910400390625	-944.4294433593752	-263.3173217773438	1449.662475585938	-1098.3154296875	-291.8685607910157	1309.349853515625	-1201.245483398438	-286.3284606933594	1265.1689453125	-1179.016357421875	-310.3583679199219	1252.69287109375	-1232.328979492188	-354.8042602539063	1204.751708984375	-1286.425170898438	-415.5050659179689	1194.290405273438	-1256.76611328125	-325.3432312011719	987.8920898437502	-1152.8134765625	-307.7758483886719	964.0764160156252	-1213.477294921875	-280.3026733398438	964.0072021484377	-1121.331909179688	-246.4148712158204	1449.589965820313	-796.6358642578127	-314.3152160644532	1333.738891601563	-652.4427490234376	-282.6990356445313	1294.1904296875	-653.5891113281251	-319.9966125488282	1277.710327148438	-609.7932739257814	-322.8648376464844	1202.509887695313	-577.3103027343751	-386.0422973632814	1202.654541015625	-591.9485473632814	-313.3806152343751	995.261413574219	-730.2372436523439	-281.8171081542969	968.3604736328127	-681.5756225585939	-274.9503784179688	954.9035644531252	-773.2407836914065	-265.2883605957032	964.892028808594	-1052.751953125	-412.1861877441407	1047.764770507813	-944.2628173828127	-421.947967529297	1015.792846679688	-971.5056152343752	-419.7541809082032	1017.044738769531	-914.9683227539065	-329.5499877929688	714.8489990234376	-1151.530029296875	-283.6847229003907	643.9874267578126	-1163.081787109375	-238.1111145019532	653.4345092773439	-1152.046142578125	-302.0444030761719	585.3432617187501	-1154.85400390625	-294.0928344726563	489.8369445800782	-1151.613647460938	-251.0467834472657	345.9411010742188	-1142.535400390625	-318.3452758789063	313.8950805664063	-1189.105224609375	-279.9126892089844	304.2853698730469	-1172.6533203125	-284.1101989746094	221.9879608154297	-1147.374267578125	-370.6406250000001	101.1848754882813	-1173.115234375	-337.2951965332032	98.3615646362305	-1095.611694335938	-415.357391357422	44.23979187011719	-1116.116577148438	-206.5305175781251	57.05488204956056	-1143.162963867188	-211.1375122070313	57.34472274780275	-1182.482788085938	-259.8995361328126	34.44285583496094	-1228.633178710938	-310.6542968750001	783.1152343750002	-741.5498657226564	-268.8972778320313	734.7427978515626	-736.6614990234376	-241.1345825195313	736.8927001953126	-754.8865356445314	-284.6959228515626	651.9974365234376	-723.6705932617189	-301.3007812500001	488.3191833496095	-732.9093627929689	-258.7640991210938	302.6375122070313	-752.7017211914064	-325.4075927734376	233.154769897461	-696.8974609375001	-286.7959289550782	226.3549957275391	-721.4676513671876	-289.4754028320313	178.8495635986328	-756.4876708984376	-360.6425476074219	100.5685958862305	-711.6721191406251	-328.4702453613282	96.62597656250003	-782.6301269531252	-404.9412536621095	44.47439575195313	-766.6239013671876	-197.5012969970704	53.8059539794922	-732.3825683593751	-205.8622436523438	59.5721778869629	-686.0798950195314	-256.4859924316407	40.37024688720704	-643.6735229492189	-171.3493957519532	1683.610717773438	-875.231872558594	nan	nan	nan	
166	0.8250000000000001	-308.8445129394532	1638.529296875	-1009.367065429688	-301.6227722167969	1630.869506835938	-869.9075927734377	-327.7464904785157	1467.039672851563	-938.0611572265627	-393.4251708984376	1182.354125976563	-936.9641113281252	-197.7820892333985	1407.899536132813	-944.4612426757815	-262.4486694335938	1448.928100585938	-1098.3330078125	-291.1674499511719	1308.824462890625	-1201.353271484375	-286.7335815429688	1264.47119140625	-1178.377807617188	-310.0413208007813	1252.307250976563	-1232.515014648438	-354.5637512207032	1204.595947265625	-1286.784057617188	-415.5327148437501	1194.524047851563	-1257.21533203125	-325.7615966796876	987.4971313476565	-1152.9267578125	-308.6650390625001	963.7741699218752	-1213.800415039063	-281.6933593750001	963.4030761718752	-1121.53662109375	-245.8190307617188	1448.724975585938	-796.7651977539065	-313.9804382324219	1333.319580078125	-652.3394165039064	-282.6923828125001	1293.60205078125	-653.8125610351564	-319.9696350097657	1277.379150390625	-609.8708496093751	-323.5276489257813	1202.023315429688	-577.5144653320314	-386.5821838378907	1202.493286132813	-592.0814819335939	-315.1224670410157	994.6724243164065	-730.3355712890626	-283.4841918945313	967.5752563476565	-681.5722045898439	-276.5046386718751	954.074401855469	-773.1726074218752	-266.8035278320313	964.1411743164065	-1052.613037109375	-413.4383544921876	1047.8017578125	-944.3461914062502	-423.346893310547	1015.814453125	-971.5424804687502	-421.2105102539064	1017.010009765625	-915.2512207031252	-330.3504638671876	714.1812133789064	-1151.751342773438	-284.2545471191407	643.6190185546876	-1163.394653320313	-238.6765899658204	653.3187866210939	-1152.473754882813	-302.1925659179688	584.9446411132814	-1155.208374023438	-293.7777709960938	489.6055297851564	-1152.121459960938	-250.9226074218751	345.7290649414063	-1142.748168945313	-318.2432861328126	313.8732604980469	-1188.989013671875	-279.1802673339844	304.3353576660157	-1173.072875976563	-284.0793151855469	221.6233978271485	-1147.125732421875	-370.5725402832032	100.9811096191407	-1173.296875	-337.3048095703126	98.25271606445315	-1095.65478515625	-415.4439697265626	44.18406677246094	-1116.201782226563	-205.5622711181641	56.79713439941408	-1142.986572265625	-210.5640869140626	57.14338302612306	-1182.402221679688	-259.8819274902344	34.49964904785157	-1228.653564453125	-312.1967773437501	782.5397949218752	-741.1254272460939	-269.8501892089844	734.5526123046876	-736.2752685546876	-242.2528839111329	736.8871459960939	-754.5179443359376	-284.9487304687501	651.6016845703126	-723.0906982421876	-300.6743469238282	488.1163940429689	-732.4417724609376	-258.1202697753907	302.3012390136719	-752.3115844726564	-324.8384704589844	232.8793640136719	-696.5890502929689	-286.2546997070313	226.2249603271485	-721.1690673828126	-289.2326049804688	178.7131042480469	-756.3347778320314	-360.6144409179688	100.5553131103516	-711.5391235351564	-328.2926330566407	96.59847259521487	-782.593688964844	-404.9457397460939	44.47495651245118	-766.6290283203126	-197.4518585205079	53.87406158447267	-732.6077270507814	-205.9120635986329	59.63843154907228	-686.1536254882814	-256.5131835937501	40.43830871582032	-643.7085571289064	-169.8164978027344	1682.646240234375	-875.204772949219	nan	nan	nan	
167	0.8300000000000001	-307.2216796875001	1637.7763671875	-1009.357788085938	-300.4422912597657	1630.09716796875	-870.0339355468752	-327.1097412109376	1466.31201171875	-938.0983886718752	-393.7034912109376	1182.098999023438	-937.0814208984377	-197.1604461669922	1406.8408203125	-944.4233398437502	-261.4092102050782	1448.006103515625	-1098.248046875	-290.6446838378907	1308.259887695313	-1201.451904296875	-285.9288330078126	1264.038940429688	-1179.072143554688	-309.6632080078126	1251.866455078125	-1232.71630859375	-354.3543701171876	1204.38525390625	-1287.08203125	-415.4918212890626	1194.669555664063	-1257.726684570313	-326.9699707031251	987.1433105468752	-1153.417114257813	-309.5967712402344	963.5129394531252	-1214.187622070313	-282.8893432617188	962.6126708984377	-1121.718994140625	-244.9979858398438	1447.879272460938	-796.759216308594	-313.7080078125001	1332.64599609375	-652.4367675781251	-282.5708618164063	1292.867797851563	-653.8244628906251	-319.9560546875001	1276.882080078125	-609.9292602539064	-323.8703308105469	1201.155517578125	-577.4454956054689	-386.9697570800782	1202.348754882813	-592.2248535156251	-316.5235290527344	993.8548583984377	-730.2486572265626	-285.0615844726563	966.7775878906252	-681.5216064453126	-278.0952148437501	953.2644042968752	-773.1856689453127	-268.4752807617188	963.4090576171877	-1052.460327148438	-414.6492004394532	1047.704956054688	-944.4541015625002	-424.8616943359376	1015.685363769531	-971.7349853515627	-422.4916076660157	1017.03125	-915.1445312500002	-331.3833007812501	713.5336303710939	-1152.113647460938	-284.5056457519532	643.0910034179689	-1163.724731445313	-239.2613677978516	653.2149047851564	-1152.825927734375	-302.4783630371094	584.4942016601564	-1155.542114257813	-293.3169860839844	489.2423400878907	-1152.510864257813	-250.5381774902344	345.3715515136719	-1143.045776367188	-317.8361206054688	313.5266418457032	-1189.304931640625	-278.8992309570313	303.9793395996094	-1173.272094726563	-283.3022460937501	221.4077301025391	-1147.664672851563	-370.4771728515626	100.8022079467774	-1173.589599609375	-337.3309326171876	98.12538146972659	-1095.73388671875	-415.4330444335939	44.07085800170899	-1116.264404296875	-206.2100219726563	56.98084259033205	-1143.014404296875	-211.0940856933594	57.48833084106447	-1182.518188476563	-259.9324645996094	34.52568435668946	-1228.59912109375	-313.8158874511719	781.905700683594	-740.8710937500001	-271.0070800781251	734.2672729492189	-735.9260253906251	-243.3539733886719	736.7700805664064	-754.1492309570314	-285.3894958496094	651.2343750000001	-722.6378784179689	-299.6138610839844	487.832733154297	-731.7660522460939	-257.7676391601563	301.5892639160157	-751.5798339843751	-324.4415893554688	232.833724975586	-696.4007568359376	-285.8150939941407	225.9287109375001	-720.9669189453126	-288.9840698242188	178.5909576416016	-756.2099609375001	-360.5778503417969	100.5720520019532	-711.4093627929689	-328.1669311523438	96.65248870849612	-782.5576782226565	-404.922332763672	44.35514450073243	-766.6358642578126	-197.5081329345704	53.78281021118165	-732.3767089843751	-206.0158996582032	59.79691314697267	-686.1262207031251	-256.4515686035157	40.39209365844727	-643.7672119140626	-168.3955993652344	1681.452270507813	-874.8904418945315	nan	nan	nan	
